<svg width="32" height="32" viewBox="0 0 32 32" fill="none" xmlns="http://www.w3.org/2000/svg">
  <defs>
    <linearGradient id="bg" x1="0%" y1="0%" x2="100%" y2="100%">
      <stop offset="0%" style="stop-color:#6366f1"/>
      <stop offset="100%" style="stop-color:#8b5cf6"/>
    </linearGradient>
  </defs>

  <!-- Background -->
  <rect width="32" height="32" rx="8" fill="url(#bg)"/>

  <!-- Lightbulb icon -->
  <g transform="translate(6, 4)">
    <!-- Bulb -->
    <path d="M10 2C7.24 2 5 4.24 5 7C5 8.85 5.92 10.46 7.34 11.38V14C7.34 14.55 7.79 15 8.34 15H11.66C12.21 15 12.66 14.55 12.66 14V11.38C14.08 10.46 15 8.85 15 7C15 4.24 12.76 2 10 2Z" fill="#fbbf24"/>

    <!-- Base -->
    <rect x="8.5" y="15.5" width="3" height="1.5" rx="0.75" fill="#e5e7eb"/>
    <rect x="8.5" y="17.2" width="3" height="1" rx="0.5" fill="#d1d5db"/>

    <!-- Rays -->
    <g stroke="#fbbf24" stroke-width="2" stroke-linecap="round">
      <line x1="10" y1="0" x2="10" y2="1"/>
      <line x1="17" y1="7" x2="16" y2="7"/>
      <line x1="3" y1="7" x2="4" y2="7"/>
      <line x1="15.24" y1="2.76" x2="14.54" y2="3.46"/>
      <line x1="5.46" y1="3.46" x2="4.76" y2="2.76"/>
      <line x1="15.24" y1="11.24" x2="14.54" y2="10.54"/>
      <line x1="5.46" y1="10.54" x2="4.76" y2="11.24"/>
    </g>
  </g>
</svg>
